<svg width="36" height="36" viewBox="0 0 36 36" fill="none" xmlns="http://www.w3.org/2000/svg">
<rect width="36" height="36" rx="6" fill="url(#paint0_linear_2061_214)"/>
<path d="M14.7855 12.6V14.232H10.7855L10.4815 16.312C10.7055 16.28 10.9135 16.264 11.2175 16.264C12.1295 16.264 13.0575 16.472 13.7455 16.936C14.5295 17.432 15.1055 18.312 15.1055 19.576C15.1055 21.56 13.4575 23.176 10.9135 23.176C9.6975 23.176 8.6895 22.872 8.1455 22.568L8.5455 21.08C8.9935 21.32 9.8895 21.624 10.8335 21.624C11.9855 21.624 13.0895 20.968 13.0895 19.736C13.0895 18.536 12.2095 17.752 10.1455 17.752C9.5535 17.752 9.1215 17.8 8.7215 17.848L9.3935 12.6H14.7855ZM17.7191 23.176C17.0151 23.176 16.5191 22.632 16.5191 21.912C16.5191 21.176 17.0311 20.648 17.7351 20.648C18.4551 20.648 18.9511 21.16 18.9511 21.912C18.9511 22.632 18.4711 23.176 17.7191 23.176ZM23.8364 12.424C26.3484 12.424 27.5164 14.664 27.5164 17.72C27.5164 21.08 26.2044 23.176 23.7084 23.176C21.3244 23.176 20.0444 21 20.0284 17.832C20.0284 14.584 21.4044 12.424 23.8364 12.424ZM23.7884 13.928C22.7484 13.928 22.0124 15.224 22.0124 17.816C22.0124 20.36 22.7004 21.672 23.7724 21.672C24.9404 21.672 25.5324 20.264 25.5324 17.768C25.5324 15.352 24.9724 13.928 23.7884 13.928Z" fill="white"/>
<defs>
<linearGradient id="paint0_linear_2061_214" x1="0" y1="18" x2="36" y2="18" gradientUnits="userSpaceOnUse">
<stop stop-color="#525DF6"/>
<stop offset="1" stop-color="#A28AD6"/>
</linearGradient>
</defs>
</svg>
