<svg width="140" height="28" viewBox="0 0 140 28" fill="none" xmlns="http://www.w3.org/2000/svg">
<path d="M98.7524 15.1178C96.2306 15.1271 91.6595 15.4576 89.4254 14.5439C88.0943 13.9995 87.0557 13.0442 86.5039 11.7016C86.3099 11.2299 86.1794 10.7343 86.116 10.228C86.025 9.5136 85.9273 5.96913 86.1789 5.45062C86.2887 5.22451 86.4892 5.14218 86.7141 5.06707C87.5146 5.08393 90.6517 4.89706 91.1766 5.19864C91.5749 5.7506 91.4303 6.86219 91.492 7.53322C91.5881 8.57774 92.0828 9.66613 92.9074 10.3339C93.5653 10.8667 94.4379 11.0921 95.275 10.9998C95.9676 10.9236 96.5533 10.614 97.0293 10.1091C98.7283 8.30675 97.8859 5.90991 98.4243 5.24627C98.7354 5.15092 99.043 5.10855 99.3674 5.09151C100.005 5.05788 103.197 4.95254 103.519 5.27089C103.807 5.55508 103.79 6.07412 103.794 6.45045C103.823 8.80368 103.802 11.1602 103.797 13.5136C103.793 14.9389 103.949 16.6313 103.637 18.0176C103.43 18.9379 103.016 19.7507 102.348 20.4218C100.665 22.1127 98.4475 21.9214 96.268 21.9104L89.8085 21.9075C88.8557 21.9075 87.8559 21.9825 86.9097 21.9157C86.7126 21.9018 86.5516 21.8543 86.3734 21.769C86.1387 21.5503 86.0984 21.2351 86.0675 20.9302C85.988 20.1454 85.8804 18.468 86.3914 17.8594C86.5142 17.713 86.8363 17.6842 87.019 17.6705C87.5917 17.6277 88.1873 17.6772 88.763 17.6798C90.7342 17.6887 93.5697 17.8367 95.4399 17.6502C96.5497 17.5396 97.4937 17.1982 98.2024 16.3044C98.4493 15.9927 98.8005 15.537 98.7524 15.1178Z" fill="white"/>
<path d="M23.5701 19.4523C23.3787 19.7797 23.1297 20.0957 22.8532 20.3547C22.2263 20.9419 21.3766 21.378 20.5382 21.5769C18.1161 22.1512 14.9955 21.9103 12.4906 21.9105C10.1923 21.9105 7.87226 21.974 5.57662 21.8989C5.20258 21.8866 4.55872 21.8791 4.30003 21.5828C4.16133 21.424 4.0852 21.2341 4.06523 21.0258C3.99285 20.2719 4.04705 19.4648 4.04633 18.7065L4.04419 13.8794L4.03778 8.69734C4.03715 7.80107 3.97921 6.86083 4.06247 5.97072C4.09964 5.57317 4.37571 5.36043 4.65971 5.12343C6.88547 4.96109 9.2157 5.10666 11.4539 5.10372C13.8393 5.10059 16.3237 4.93843 18.6933 5.13833C19.4394 5.2013 20.1819 5.34794 20.8823 5.61661C21.9916 6.04217 22.9818 6.78564 23.4625 7.9008C23.887 8.88545 23.9394 10.1912 23.5397 11.1922C23.0978 12.2987 22.2034 12.8802 21.1558 13.3335C21.4197 13.4289 21.689 13.5247 21.9398 13.6516C22.8896 14.1318 23.604 14.9275 23.9221 15.9488C24.2853 17.1152 24.1268 18.3778 23.5701 19.4523ZM9.11881 9.24742L9.12282 11.6461C10.838 11.6334 12.5531 11.6361 14.2681 11.6543C15.2394 11.6605 16.2977 11.7467 17.2584 11.5967C17.4998 11.5591 17.6885 11.4606 17.8932 11.3315C18.1447 10.9708 18.2742 10.6601 18.1974 10.2123C18.1506 9.92863 17.9857 9.67825 17.7436 9.5234C16.939 9.00364 10.5306 9.24564 9.11881 9.24742ZM9.11863 15.4952L9.11373 17.9612L14.3611 17.9674C15.3193 17.9675 16.355 18.0453 17.3007 17.8947C17.5827 17.8499 17.8083 17.7354 18.0526 17.5927C18.3104 17.2795 18.4454 16.9981 18.406 16.5824C18.3803 16.2904 18.2369 16.0216 18.009 15.8377C17.769 15.6431 17.4539 15.5711 17.1544 15.5318C16.2643 15.4149 15.2937 15.4881 14.3944 15.4893L9.11863 15.4952Z" fill="white"/>
<path d="M44.4279 10.6845C44.4132 12.5532 44.7452 16.4163 44.0637 18.0196C43.4173 19.5404 42.0654 20.6847 40.5495 21.2852C39.9088 21.5362 39.2401 21.7085 38.558 21.7981C37.2766 21.9667 35.944 21.8979 34.6536 21.894C33.3665 21.8901 32.0327 21.9509 30.7568 21.766C30.0246 21.6666 29.3094 21.4674 28.6312 21.1739C27.184 20.5358 25.9641 19.4691 25.3928 17.9596C25.2128 17.4737 25.1034 16.9645 25.0677 16.4475C24.9058 14.2832 25.0429 12.0197 25.0634 9.84661C25.0741 8.71353 24.9608 7.55306 25.0314 6.42488C25.048 6.15942 25.0847 5.85668 25.2065 5.6163C25.3542 5.32488 25.5786 5.2389 25.8677 5.14417C26.6773 5.13186 29.8595 4.8937 30.4259 5.36645C30.571 5.48758 30.6539 5.67329 30.683 5.85651C30.78 6.466 30.7194 7.16157 30.7165 7.78034C30.7087 9.5156 30.5833 11.3308 30.7107 13.0583C30.8028 14.3067 31.3444 15.5278 32.3071 16.3468C33.0034 16.939 34.0162 17.3551 34.9398 17.2761C35.6654 17.2141 36.3508 16.9176 36.9277 16.4782C37.7083 15.8836 38.2052 15.1277 38.478 14.1868C39.0839 12.0967 38.4311 8.41855 38.6913 6.12589C38.7196 5.87684 38.7882 5.53771 38.9698 5.35468C39.3791 4.94214 41.9662 5.1142 42.6424 5.10599C43.0381 5.10127 43.7921 5.04694 44.0803 5.35156C44.7166 6.02411 44.4376 9.65225 44.4279 10.6845Z" fill="white"/>
<path d="M62.3812 19.7965C61.3739 20.6916 60.1172 21.3666 58.8008 21.669C56.9473 22.0947 53.7346 21.8946 51.7622 21.8978C50.1537 21.9005 48.4688 22.0046 46.868 21.8701C46.5298 21.8418 46.1609 21.8108 45.8656 21.6295C45.6549 20.7161 45.6465 6.35885 45.7942 5.68299C45.8583 5.38962 46.1071 5.27339 46.3427 5.12077C47.6914 5.05762 49.0563 5.10168 50.4069 5.10338C52.3054 5.10579 54.205 5.08447 56.1032 5.10409C58.6587 5.1305 60.9864 5.79993 62.8095 7.67389C64.378 9.29596 65.2362 11.4767 65.194 13.7337C65.1502 16.1568 64.1019 18.1447 62.3812 19.7965ZM51.0277 9.41683L51.0142 17.7149C52.585 17.7204 55.417 17.9321 56.8095 17.557C57.5214 17.3652 58.1107 17.0203 58.6331 16.502C59.4476 15.617 59.9284 14.59 59.874 13.3654C59.8247 12.2566 59.3751 11.1887 58.5375 10.4481C56.8218 8.93123 53.2349 9.45822 51.0277 9.41683Z" fill="white"/>
<path d="M82.6874 19.7096C81.6801 20.6047 80.4234 21.2798 79.107 21.5822C77.2535 22.0078 74.0407 21.8077 72.0684 21.8109C70.4598 21.8136 68.775 21.9177 67.1741 21.7833C66.836 21.7549 66.467 21.724 66.1717 21.5426C65.9611 20.6293 65.9527 6.27199 66.1003 5.59614C66.1644 5.30276 66.4132 5.18654 66.6488 5.03392C67.9976 4.97077 69.3624 5.01483 70.7131 5.01653C72.6115 5.01893 74.5111 4.99762 76.4094 5.01724C78.9649 5.04364 81.2926 5.71307 83.1156 7.58704C84.6841 9.20911 85.5423 11.3898 85.5001 13.6468C85.4564 16.07 84.4081 18.0578 82.6874 19.7096ZM71.3339 9.32998L71.3203 17.628C72.8912 17.6335 75.7232 17.8453 77.1156 17.4701C77.8275 17.2783 78.4168 16.9334 78.9393 16.4152C79.7538 15.5301 80.2346 14.5031 80.1801 13.2785C80.1308 12.1698 79.6812 11.1018 78.8436 10.3613C77.1279 8.84438 73.5411 9.37136 71.3339 9.32998Z" fill="#545FF6"/>
<path d="M119.037 11.5622C119.05 11.7663 114.016 21.0229 113.443 21.6741C112.704 21.9707 109.823 21.9254 108.955 21.8095C108.613 21.7638 108.236 21.6726 108.018 21.3847C107.952 21.0589 108.075 20.7351 108.208 20.4415C108.705 19.3504 109.415 18.2993 109.987 17.2368L115.045 7.92232C115.822 6.47882 116.522 5.56535 118.152 5.07484C119.055 4.94408 120.07 5.00331 120.901 5.3956C121.502 5.67952 121.923 6.10651 122.299 6.64598C123.017 7.67524 123.572 8.887 124.167 9.9927L127.467 16.1384C128.154 17.4268 129.45 19.4379 129.877 20.7238C129.961 20.9739 130.032 21.248 129.907 21.4938C129.739 21.6087 129.581 21.6781 129.383 21.7263C128.37 21.9735 127.117 21.8447 126.073 21.8447L120.735 21.839C119.016 21.8358 117.241 21.9438 115.53 21.8593C115.299 21.848 115.087 21.8384 114.887 21.7148C114.864 21.6447 114.847 21.5878 114.848 21.5131C114.866 20.7586 116.469 17.9199 117.052 17.3489C117.616 17.0728 120.795 17.2194 121.592 17.2649L121.639 17.182C121.697 17.1887 121.669 17.1816 121.735 17.2111C121.812 17.2455 121.766 17.2403 121.862 17.2157C121.829 17.0137 121.734 16.9522 121.599 16.8099C121.602 16.7928 121.606 16.776 121.607 16.7587C121.612 16.4465 119.366 11.9279 119.037 11.5622Z" fill="white"/>
<path d="M135.51 21.8137C134.73 21.9525 132.062 21.9392 131.403 21.6496C131.333 21.5873 131.288 21.5437 131.259 21.4517C130.932 20.3994 131.118 18.233 131.118 17.0864L131.122 10.3393C131.125 8.96203 131.033 7.53976 131.09 6.17093C131.098 5.97112 131.135 5.7318 131.233 5.55617C131.369 5.31337 131.566 5.23327 131.816 5.15424C132.8 5.14184 135.051 4.94445 135.887 5.2413C136.046 5.29776 136.114 5.33398 136.18 5.49543C136.313 5.82296 136.347 6.25272 136.363 6.60362C136.489 9.33942 136.374 12.1264 136.372 14.8696C136.369 16.843 136.503 18.9037 136.373 20.8695C136.362 21.0371 136.323 21.2165 136.239 21.3628C136.078 21.6418 135.801 21.7421 135.51 21.8137Z" fill="white"/>
</svg>
