<svg width="120" height="24" viewBox="0 0 120 24" fill="none" xmlns="http://www.w3.org/2000/svg">
<path d="M84.6449 12.9581C82.4834 12.9661 78.5654 13.2494 76.6504 12.4662C75.5095 11.9996 74.6193 11.1807 74.1462 10.03C73.98 9.6256 73.8681 9.20081 73.8138 8.76685C73.7358 8.15452 73.652 5.1164 73.8677 4.67196C73.9618 4.47815 74.1337 4.40758 74.3264 4.34321C75.0126 4.35766 77.7015 4.19748 78.1515 4.45598C78.4929 4.92908 78.3689 5.88187 78.4218 6.45705C78.5042 7.35234 78.9282 8.28526 79.635 8.8576C80.1989 9.31427 80.9469 9.50748 81.6643 9.42842C82.258 9.36305 82.76 9.09768 83.168 8.66494C84.6243 7.12007 83.9023 5.06564 84.3638 4.49681C84.6304 4.41507 84.894 4.37876 85.1722 4.36415C85.7185 4.33533 88.4546 4.24504 88.7304 4.51791C88.9772 4.76149 88.9627 5.20639 88.9665 5.52896C88.991 7.54601 88.9734 9.56589 88.9688 11.5831C88.9657 12.8048 89.0995 14.2554 88.832 15.4436C88.654 16.2325 88.2995 16.9292 87.7272 17.5044C86.2846 18.9537 84.3836 18.7898 82.5155 18.7803L76.9788 18.7779C76.1621 18.7779 75.3051 18.8422 74.4941 18.7849C74.3252 18.773 74.1871 18.7322 74.0345 18.6591C73.8332 18.4717 73.7987 18.2016 73.7722 17.9402C73.7041 17.2675 73.6119 15.8297 74.0498 15.308C74.1551 15.1826 74.4312 15.1579 74.5878 15.1462C75.0786 15.1095 75.5892 15.1519 76.0826 15.1541C77.7723 15.1618 80.2027 15.2886 81.8057 15.1287C82.7569 15.0339 83.5661 14.7413 84.1735 13.9752C84.3852 13.708 84.6862 13.3174 84.6449 12.9581Z" fill="white"/>
<path d="M20.2026 16.6734C20.0386 16.954 19.8252 17.2249 19.5882 17.4468C19.0508 17.9502 18.3225 18.324 17.6039 18.4944C15.5278 18.9867 12.853 18.7802 10.7059 18.7804C8.73601 18.7805 6.74738 18.8348 4.77968 18.7704C4.45908 18.76 3.90719 18.7535 3.68546 18.4996C3.56657 18.3634 3.50132 18.2006 3.48421 18.0221C3.42216 17.3759 3.46862 16.6841 3.46801 16.0341L3.46617 11.8966L3.46067 7.45486C3.46014 6.68663 3.41047 5.88071 3.48184 5.11776C3.5137 4.777 3.75033 4.59465 3.99376 4.39151C5.90155 4.25236 7.8989 4.37714 9.81739 4.37461C11.8619 4.37194 13.9915 4.23294 16.0226 4.40428C16.662 4.45826 17.2985 4.58395 17.8988 4.81423C18.8497 5.179 19.6984 5.81626 20.1104 6.77211C20.4743 7.6161 20.5192 8.73534 20.1766 9.59332C19.7978 10.5418 19.0312 11.0402 18.1332 11.4287C18.3595 11.5104 18.5903 11.5926 18.8052 11.7014C19.6194 12.113 20.2317 12.795 20.5044 13.6704C20.8157 14.6701 20.6798 15.7524 20.2026 16.6734ZM7.81584 7.92636L7.81928 9.98241C9.28942 9.97147 10.7596 9.97377 12.2295 9.98944C13.0621 9.99471 13.9692 10.0686 14.7926 9.94005C14.9996 9.90778 15.1613 9.82338 15.3368 9.71275C15.5523 9.40356 15.6633 9.13727 15.5975 8.75338C15.5574 8.51025 15.416 8.29564 15.2086 8.16291C14.5188 7.71741 9.02597 7.92483 7.81584 7.92636ZM7.81569 13.2816L7.81149 15.3953L12.3092 15.4007C13.1305 15.4007 14.0183 15.4674 14.8289 15.3384C15.0706 15.2999 15.264 15.2018 15.4734 15.0795C15.6943 14.811 15.8101 14.5698 15.7763 14.2135C15.7543 13.9632 15.6314 13.7328 15.436 13.5751C15.2303 13.4084 14.9602 13.3467 14.7035 13.313C13.9405 13.2127 13.1086 13.2755 12.3378 13.2766L7.81569 13.2816Z" fill="white"/>
<path d="M38.0812 9.15818C38.0686 10.7599 38.3532 14.0711 37.7691 15.4454C37.215 16.7489 36.0562 17.7298 34.7568 18.2445C34.2077 18.4596 33.6345 18.6073 33.0498 18.6841C31.9515 18.8286 30.8093 18.7696 29.7032 18.7663C28.6 18.7629 27.4567 18.8151 26.3631 18.6566C25.7355 18.5714 25.1225 18.4007 24.5412 18.1491C23.3007 17.6021 22.2551 16.6878 21.7654 15.394C21.6112 14.9774 21.5173 14.541 21.4868 14.0978C21.348 12.2427 21.4655 10.3026 21.483 8.43995C21.4922 7.46874 21.3952 6.47405 21.4556 5.50704C21.4699 5.27951 21.5013 5.02002 21.6057 4.81397C21.7323 4.56419 21.9246 4.49048 22.1724 4.40929C22.8664 4.39874 25.594 4.1946 26.0795 4.59982C26.2039 4.70364 26.2749 4.86282 26.2998 5.01986C26.383 5.54228 26.331 6.13849 26.3286 6.66886C26.3219 8.15623 26.2144 9.7121 26.3236 11.1928C26.4025 12.2629 26.8668 13.3096 27.692 14.0115C28.2888 14.5192 29.1569 14.8758 29.9486 14.8081C30.5705 14.755 31.158 14.5008 31.6524 14.1242C32.3215 13.6145 32.7475 12.9666 32.9813 12.1601C33.5006 10.3686 32.9411 7.2159 33.1641 5.25076C33.1883 5.0373 33.2472 4.74661 33.4028 4.58972C33.7537 4.23612 35.9711 4.3836 36.5508 4.37657C36.8899 4.37251 37.5363 4.32595 37.7833 4.58705C38.3287 5.16352 38.0895 8.27336 38.0812 9.15818Z" fill="white"/>
<path d="M53.4695 16.9684C52.6061 17.7356 51.5289 18.3143 50.4006 18.5734C48.8118 18.9383 46.0581 18.7668 44.3675 18.7695C42.9887 18.7718 41.5446 18.8611 40.1724 18.7458C39.8826 18.7215 39.5663 18.695 39.3132 18.5396C39.1327 17.7567 39.1255 5.45044 39.252 4.87114C39.3069 4.61967 39.5202 4.52005 39.7221 4.38923C40.8782 4.3351 42.0481 4.37287 43.2058 4.37433C44.833 4.37639 46.4613 4.35812 48.0883 4.37494C50.2788 4.39757 52.274 4.97137 53.8365 6.57762C55.181 7.96797 55.9166 9.83716 55.8804 11.7717C55.8429 13.8487 54.9444 15.5526 53.4695 16.9684ZM43.7379 8.07157L43.7263 15.1842C45.0727 15.1889 47.5002 15.3704 48.6937 15.0488C49.3039 14.8845 49.809 14.5888 50.2568 14.1446C50.955 13.386 51.3671 12.5057 51.3204 11.456C51.2782 10.5057 50.8928 9.59028 50.1748 8.95555C48.7043 7.65534 45.6298 8.10704 43.7379 8.07157Z" fill="white"/>
<path d="M70.8748 16.894C70.0114 17.6612 68.9342 18.2398 67.8058 18.499C66.2171 18.8638 63.4633 18.6923 61.7728 18.6951C60.394 18.6974 58.9499 18.7866 57.5777 18.6714C57.2879 18.6471 56.9716 18.6206 56.7185 18.4651C56.5379 17.6822 56.5307 5.37599 56.6573 4.79669C56.7122 4.54523 56.9255 4.4456 57.1274 4.31479C58.2835 4.26066 59.4534 4.29843 60.6111 4.29988C62.2383 4.30194 63.8665 4.28367 65.4936 4.30049C67.684 4.32312 69.6792 4.89692 71.2418 6.50318C72.5863 7.89352 73.3218 9.76271 73.2857 11.6973C73.2482 13.7743 72.3496 15.4782 70.8748 16.894ZM61.1432 7.99712L61.1316 15.1097C62.478 15.1145 64.9054 15.296 66.099 14.9744C66.7092 14.81 67.2143 14.5144 67.6621 14.0701C68.3602 13.3116 68.7724 12.4312 68.7257 11.3816C68.6834 10.4312 68.298 9.51584 67.5801 8.8811C66.1095 7.5809 63.0351 8.0326 61.1432 7.99712Z" fill="#545FF6"/>
<path d="M102.032 9.91049C102.042 10.0854 97.7277 18.0196 97.2364 18.5778C96.603 18.832 94.1335 18.7932 93.3901 18.6939C93.0967 18.6547 92.7735 18.5765 92.587 18.3298C92.5305 18.0505 92.6359 17.773 92.7498 17.5213C93.1754 16.5861 93.7843 15.6851 94.2741 14.7744L98.6102 6.79056C99.2757 5.55328 99.8762 4.7703 101.273 4.34987C102.047 4.23778 102.917 4.28855 103.629 4.6248C104.144 4.86816 104.505 5.23415 104.827 5.69656C105.443 6.57878 105.918 7.61743 106.429 8.56517L109.257 13.8329C109.846 14.9372 110.957 16.6611 111.323 17.7632C111.395 17.9776 111.456 18.2126 111.349 18.4233C111.205 18.5218 111.069 18.5812 110.899 18.6225C110.031 18.8344 108.957 18.7241 108.062 18.724L103.487 18.7192C102.013 18.7164 100.492 18.8089 99.0258 18.7365C98.8279 18.7268 98.6461 18.7186 98.4741 18.6127C98.455 18.5526 98.4398 18.5039 98.4413 18.4398C98.4566 17.7931 99.8304 15.3599 100.33 14.8705C100.814 14.6338 103.538 14.7595 104.221 14.7984L104.262 14.7274C104.312 14.7332 104.288 14.7271 104.344 14.7523C104.41 14.7819 104.37 14.7774 104.453 14.7563C104.425 14.5832 104.343 14.5305 104.228 14.4085C104.23 14.3938 104.234 14.3794 104.234 14.3646C104.239 14.097 102.314 10.2239 102.032 9.91049Z" fill="white"/>
<path d="M116.151 18.6975C115.483 18.8164 113.196 18.805 112.631 18.5568C112.571 18.5034 112.533 18.466 112.508 18.3872C112.228 17.4852 112.387 15.6283 112.387 14.6455L112.39 8.86229C112.393 7.68174 112.314 6.46265 112.363 5.28936C112.37 5.1181 112.401 4.91297 112.485 4.76243C112.602 4.55432 112.771 4.48566 112.985 4.41792C113.828 4.4073 115.758 4.2381 116.474 4.49254C116.611 4.54094 116.669 4.57198 116.726 4.71037C116.84 4.99111 116.869 5.35947 116.882 5.66025C116.991 8.00522 116.892 10.3941 116.89 12.7454C116.888 14.4369 117.002 16.2032 116.891 17.8881C116.882 18.0318 116.848 18.1856 116.776 18.311C116.639 18.5501 116.401 18.6361 116.151 18.6975Z" fill="white"/>
</svg>
